<svg xmlns="http://www.w3.org/2000/svg" version="1.1" xmlns:xlink="http://www.w3.org/1999/xlink" viewBox="0 0 800 800" style="overflow: hidden; display: block;" width="800" height="800"><defs></defs><g id="two-0" transform="matrix(1 0 0 1 0 0)" opacity="1"></g><path d="M 96.54619277583274 725.6058852424579 Q 96.54619277583274 725.6058852424579 99.54263720087431 725.2265800152069 102.53908162591588 724.8472747879558 108.03645244716624 722.3118958979838 113.5338232684166 719.7765170080119 120.24264202296263 716.0129254334329 126.95146077750867 712.249333858854 132.30728564344147 709.3924777746862 137.6631105093743 706.5356216905184 143.5079169294387 703.1969523066998 149.35272334950307 699.8582829228814 155.31227326701924 695.4080073030844 161.27182318453544 690.9577316832875 166.74165391696945 685.9212898411865 172.21148464940347 680.8848479990857 176.92110661966177 675.5680200163781 181.63072858992004 670.2511920336706 186.24275210099796 664.0401407069924 190.8547756120759 657.829089380314 194.41151269150942 652.8408698801843 197.96824977094292 647.8526503800546 202.3930555530933 642.161401293187 206.81786133524366 636.4701522063195 210.9018180314103 631.5807843840356 214.9857747275769 626.6914165617517 218.42939162677288 619.8738725455279 221.87300852596886 613.0563285293041 226.13103395851073 606.1048465902567 230.3890593910526 599.1533646512092 233.74574387212607 593.441041439387 237.10242835319954 587.7287182275649 238.87048055979523 581.3277721339672 240.63853276639094 574.9268260403695 242.3613923947712 568.3543717007126 244.08425202315146 561.7819173610555 246.4976310197394 555.1558535894885 248.91101001632734 548.5297898179216 250.81967175727266 542.7013449060554 252.72833349821795 536.8728999941892 253.9188536794484 530.4770520950749 255.10937386067886 524.0812041959607 255.25418473461113 516.9291549064242 255.3989956085434 509.7771056168876 255.37936929801532 503.55993226499027 255.35974298748724 497.3427589130929 255.87934100407153 489.9250597275007 256.39893902065586 482.5073605419085 256.3702447084488 476.03362492194685 256.34155039624176 469.5598893019852 256.3181016588969 463.3165829970404 256.2946529215521 457.07327669209565 256.2594850478973 449.6825718005498 256.22431717424246 442.2918669090039 255.8001896964082 433.988118586499 255.37606221857396 425.6843702639942 254.70868126432967 419.33647990655936 254.04130031008538 412.9885895491246 252.55291820393228 406.1876098382239 251.0645360977792 399.38663012732326 249.74643721027894 393.094448706966 248.42833832277864 386.80226728660875 247.64267050498205 385.4796389250996 246.85700268718543 384.15701056359046 246.37413376382636 381.5278864294505 245.89126484046733 378.8987622953105 246.27318330199745 376.25308763681494 246.65510176352757 373.60741297831936 247.861820646208 371.22219063060294 249.0685395288884 368.8369682828865 250.9737150471596 366.96193165539273 252.87889056543082 365.086895027899 255.28305033961234 363.918360950488 257.68721011379387 362.7498268730771 260.3386379808924 362.41014117211694 262.9900658479909 362.0704554711568 265.61115661041214 362.5951833292063 268.2322473728334 363.11991118725575 270.54857213585115 364.45411345906234 272.8648968988689 365.788315730869 274.63393584834483 367.79230108637944 276.4029747978208 369.7962864418899 277.4395090887638 372.26023708538145 278.4760433797069 374.724187728873 278.6715475982368 377.3901273775523 278.8670518167668 380.0560670262316 278.2010566195955 382.64487109514215 277.5350614224242 385.2336751640527 276.077296682501 387.47429518380176 274.6195319425779 389.7149152035508 272.5226260129855 391.3727576666043 270.42572008339306 393.0306001296578 267.90921956848905 393.9320884925062 265.39271905358504 394.8335768553546 262.72010222157155 394.8843250484378 260.047485389558 394.935073241521 257.4985759282491 394.12976791562704 254.94966646694022 393.32446258973306 252.79133586978173 391.74741942506296 250.63300527262325 390.17037626039286 249.09123132288164 387.9867120925865 247.54945737314003 385.8030479247802 246.78566421034202 383.2413929686383 246.02187104754398 380.67973801249644 246.11602801745633 378.0082982181383 246.21018498736868 375.3368584237802 247.15243383038654 372.83533424286674 248.0946826734044 370.3338100619533 249.78636968693428 368.26411173656436 251.47805670046415 366.1944134111755 253.74206180762746 364.7732389023267 256.0060669147908 363.35206439347786 258.6053481832282 362.7282110473992 261.20462945166565 362.10435770132057 263.8670414464282 362.3431431280278 266.5294534411907 362.58192855473504 268.9762409236182 363.6583518570187 271.4230284060457 364.73477515930244 273.39801208083884 366.5361345332653 275.37299575563196 368.3374939072281 276.6693943106949 370.6751865509035 277.96579286575775 373.01287919457894 277.9649570558988 373.01054603529803 277.96412124603984 373.0082128760172 276.40170341234256 371.4052447898465 274.8392855786453 369.80227670367583 277.8613684678079 375.82128956611155 280.88345135697045 381.84030242854726 281.99195793544766 390.04765043775456 283.10046451392486 398.2549984469618 285.0250438493356 405.4792460175527 286.9496231847464 412.70349358814366 287.49674086809324 418.76466408155045 288.0438585514401 424.8258345749573 288.5772102039349 431.6223360191908 289.1105618564297 438.4188374634244 289.0992598860934 446.06951817842844 289.08795791575716 453.72019889343255 289.04599720120825 460.02254431967515 289.0040364866593 466.32488974591774 288.9726588542251 473.83344671046365 288.9412812217908 481.34200367500955 288.43706498924416 487.46980116013685 287.9328487566976 493.5975986452642 287.8825530572218 499.6563374330332 287.8322573577461 505.71507622080213 287.7701234433937 513.2952134886227 287.7079895290413 520.8753507564434 286.538987014595 529.273093663603 285.3699845001488 537.6708365707627 283.76862715267407 544.1799819373483 282.1672698051993 550.6891273039339 280.08545435321207 556.4744071391901 278.0036389012248 562.2596869744464 275.51256972349404 569.3777311735034 273.02150054576333 576.4957753725604 271.6764472572853 584.2756121178895 270.3313939688072 592.0554488632188 267.53667236136835 598.0630646630578 264.7419507539294 604.0706804628969 261.3349360668806 609.8157654131742 257.92792137983173 615.5608503634516 253.67803916061814 622.4963482305843 249.42815694140458 629.4318460977171 245.78070591596938 635.3636359041684 242.13325489053418 641.2954257106197 237.7758852936416 647.3451184185924 233.41851569674904 653.3948111265652 229.36631702767716 658.5308891717289 225.31411835860524 663.6669672168925 221.1029831432812 669.4653853137877 216.89184792795714 675.263803410683 212.8883220824424 680.5979586894707 208.88479623692763 685.9321139682585 203.79080175876783 691.7762030090614 198.696807280608 697.6202920498645 192.80421385693472 702.8220973214361 186.91162043326142 708.0239025930076 181.55217294296455 712.3051064984575 176.1927254526677 716.5863104039072 171.37390132224607 720.5389121116139 166.5550771918244 724.4915138193205 160.6850042179373 727.2122343091397 154.81493124405017 729.9329547989589 148.9471786690221 732.827530016713 143.07942609399402 735.7221052344671 137.1835618551842 738.6316369612633 131.28769761637437 741.5411686880595 125.52005090518199 744.3173640315034 119.75240419398962 747.0935593749473 112.43519502884888 748.7409584556051 105.11798586370813 750.388357536263 102.0934908432541 750.6111458148713 99.06899582280008 750.8339340934796 97.54125372081961 750.8015934527357 96.01351161883915 750.7692528119919 94.53790560170066 750.3722279646686 93.06229958456218 749.9752031173454 91.72459194331282 749.236569166223 90.38688430206344 748.4979352151008 89.26482266766452 747.4606216001234 88.1427610332656 746.4233079851462 87.30155968062824 745.147603422354 86.46035832799089 743.871898859562 85.94890791925405 742.4319473580834 85.4374575105172 740.991995856605 85.28548356746707 739.4714874653616 85.13350962441693 737.9509790741183 85.34984487976402 736.4382858122501 85.56618013511113 734.925592550382 86.13825117365022 733.5086322213424 86.7103222121893 732.0916718923028 87.60488023828185 730.852798296991 88.4994382643744 729.6139247016791 89.66449152351329 728.625141231663 90.82954478265218 727.6363577616468 92.19738032467646 726.9551325586613 93.56521586670073 726.2739073556759 95.05633502564046 725.9398332605259 96.54745418458019 725.605759165376 96.54682348020646 725.6058222039169 Z" fill="hsl(28, 54%, 35%)"></path><path d="M 546.5849621416537 361.01801220850643 Q 546.5849621416537 361.01801220850643 544.8428441592623 364.3557439033211 543.1007261768709 367.6934755981358 540.0322047666602 374.86956772791245 536.9636833564497 382.04565985768915 534.0141001721593 388.438268778787 531.0645169878687 394.83087769988487 528.0579197095694 402.61714895042974 525.0513224312701 410.40342020097455 523.4185567736606 417.21702731798854 521.7857911160511 424.0306344350025 520.5020979330022 430.4324551563693 519.2184047499533 436.83427587773605 518.288908209345 442.9206350368013 517.3594116687367 449.00699419586647 515.8339028222601 455.7844663791583 514.3083939757836 462.56193856245005 513.8616823242685 468.81990892656995 513.4149706727535 475.07787929068985 513.4434550317002 482.18691609344967 513.4719393906469 489.2959528962095 513.5017711535047 496.9934508675711 513.5316029163625 504.6909488389327 514.0435962298925 511.7732550347339 514.5555895434226 518.8555612305352 515.8017151499018 525.5411273094328 517.047840756381 532.2266933883304 518.1026559410004 539.4135127478041 519.1574711256197 546.600332107278 520.5292631592624 553.6340911568184 521.9010551929051 560.6678502063589 522.9161805351628 567.1198746542315 523.9313058774203 573.571899102104 524.4895835503953 580.6794323062794 525.0478612233704 587.7869655104548 526.0093893260514 594.6227424217914 526.9709174287324 601.4585193331279 528.4551985078292 608.5453827555003 529.939479586926 615.6322461778727 531.0395371540658 622.4417788412031 532.1395947212056 629.2513115045334 533.4956231923757 635.3152969469759 534.8516516635457 641.3792823894184 536.3355541613288 648.6959391478122 537.8194566591119 656.012595906206 540.778548074969 663.2271896815303 543.7376394908259 670.4417834568544 547.9424466724049 675.8688929963715 552.1472538539838 681.2960025358886 557.0062697458906 685.6278934955282 561.8652856377973 689.9597844551677 567.3053156992473 693.8499731958832 572.7453457606973 697.7401619365987 578.4013613455904 700.4448206500715 584.0573769304837 703.1494793635444 589.8626256991222 705.4341552445038 595.6678744677607 707.7188311254632 602.066135461931 710.3574072195072 608.4643964561012 712.9959833135513 614.0703879446561 716.0213974771821 619.676379433211 719.0468116408127 626.0835328300229 719.6448571087643 632.4906862268348 720.2429025767159 639.2308561356481 720.7629198419315 645.9710260444614 721.2829371071472 652.5517466043161 721.8070564855499 659.132467164171 722.3311758639526 665.5927796192773 722.1018795376606 672.0530920743836 721.8725832113685 678.2750357499189 717.8835251661465 684.4969794254541 713.8944671209243 684.4441277632498 707.0090526976796 684.3912761010453 700.1236382744349 686.8079265573633 692.9023519834833 689.2245770136815 685.6810656925317 690.5283031607411 678.3068189741766 691.8320293078007 670.9325722558215 691.5481318677555 664.1081249956483 691.2642344277102 657.2836777354751 697.7552151864926 659.2507022730431 704.246195945275 661.2177268106112 697.6308686412278 659.7775943782883 691.0155413371808 658.3374619459655 683.5211907747347 656.1596977831225 676.0268402122886 653.9819336202795 670.3172746455867 652.1344151757658 664.6077090788849 650.2868967312521 657.2726845257248 646.0797514673283 649.9376599725646 641.8726062034044 643.9268424874069 641.3197620942748 637.9160250022494 640.7669179851451 645.1406548056075 638.9176095727494 652.3652846089655 637.0683011603537 647.469393479394 641.5417567943591 642.5735023498224 646.0152124283644 637.3456497828398 650.6689827362927 632.1177972158572 655.322753044221 626.2163287798833 657.5436615242945 620.3148603439095 659.7645700043679 613.4238302833355 662.52111465496 606.5328002227617 665.2776593055521 600.3661833201111 666.9685442374948 594.1995664174605 668.6594291694375 587.5996449298074 666.6533286214186 580.9997234421543 664.6472280733997 577.2147517352123 658.8516579483276 573.4297800282702 653.0560878232556 567.6768011204667 647.6875417261134 561.9238222126631 642.3189956289713 559.7666049846764 636.4709664715377 557.6093877566896 630.6229373141042 556.0077671830436 622.9889153362809 554.4061466093978 615.3548933584576 552.4687271445584 609.069316920979 550.5313076797192 602.7837404835002 549.2682490355566 596.4650243147285 548.0051903913939 590.1463081459567 547.9652788106885 582.9176156840821 547.9253672299831 575.6889232222074 547.9567630012386 569.4751715899713 547.9881587724942 563.2614199577353 547.4551768314524 556.7359735582673 546.9221948904105 550.2105271587994 546.8745406131459 544.1542947572182 546.8268863358811 538.098062355637 546.2811214810265 531.763018462078 545.735356626172 525.4279745685191 545.7211560247956 518.8307628286468 545.7069554234192 512.2335510887747 545.7124735537698 505.5410340520849 545.7179916841202 498.8485170153952 547.4637674131488 490.1734647659322 549.2095431421774 481.4984125164691 550.9758527374631 475.03440848513105 552.7421623327489 468.57040445379295 554.1399587413437 461.5721787920987 555.5377551499384 454.57395313040456 559.0570494607078 445.3546371255069 562.5763437714772 436.13532112060915 567.4107195744394 429.62211514715045 572.2450953774016 423.1089091736918 578.1896189815977 421.80222301956536 584.1341425857939 420.4955368654389 590.1109900382284 421.53928904294713 596.0878374906628 422.58304122045536 601.5158307162026 426.4089811154994 606.9438239417423 430.2349210105435 611.808213627982 434.80685728819344 616.6726033142218 439.37879356584335 623.5490505094699 440.2117104505279 630.4254977047179 441.04462733521245 634.7372963477726 436.15594799115615 639.0490949908271 431.2672686470999 641.4833224394085 423.96927854369835 643.9175498879898 416.6712884402968 645.1342375017565 409.51792001837015 646.3509251155232 402.3645515964435 646.6475062883476 396.34558223444395 646.9440874611721 390.3266128724444 645.9903703509119 383.9630646636148 645.0366532406517 377.5995164547851 650.5468197154307 381.7337989883214 656.0569861902097 385.8680815218577 650.3507101933664 382.4650646817058 644.644434196523 379.062047841554 637.693738051012 375.11557722742566 630.7430419055011 371.1691066132974 625.4913370779802 367.4857285918115 620.2396322504593 363.8023505703256 614.6410340514146 361.0091030255884 609.0424358523701 358.21585548085113 600.5948762643075 353.0249702809938 592.1473166762448 347.83408508113644 586.3000081409093 350.16723659496654 580.4526996055737 352.50038810879664 574.0721501461037 352.4992258432158 567.6916006866336 352.498063577635 561.6830010763551 354.75773496381305 555.6744014660767 357.0174063499912 558.8639432723731 353.59268461335273 562.0534850786696 350.16796287671434 560.4819462971379 352.50615882097014 558.9104075156064 354.84435476522594 556.6745265319357 356.55833569932406 554.438645548265 358.2723166334222 551.7725196916608 359.1826283011155 549.1063938350566 360.09293996880893 546.2891671864942 360.1042724981911 543.4719405379318 360.1156050275732 540.7985774711914 359.22677189982636 538.125214404451 358.3379387720795 535.8756167383194 356.64200105030784 533.626019072188 354.94606332853624 532.0357202761455 352.6205861398934 530.445421480103 350.2951089512506 529.6809262578934 347.5835703712538 528.9164310356838 344.8720317912571 529.0577822388793 342.05833062500875 529.199133442075 339.2446294587604 530.2315315623882 336.62336096111164 531.2639296827015 334.0020924634629 533.079282364409 331.8477041380652 534.8946350461164 329.6933158126675 537.3028743842367 328.23137268589335 539.7111137223569 326.76942955911915 542.4600964224753 326.15299746225725 545.2090791225938 325.53656536539535 548.0109859703471 325.8301849017094 550.8128928181004 326.12380443802346 553.3743634268972 327.2967335645534 555.935834035694 328.4696626910834 557.9886817566307 330.39909541865825 560.0415294775675 332.32852814623317 561.3708206123629 334.81245235895517 562.7001117471582 337.2963765716772 563.1666691631003 340.07472474878193 563.6332265790425 342.85307292588675 563.188201591523 345.6349512798188 562.7431766040037 348.4168296337508 561.4331634466912 350.9109747665088 560.1231502893788 353.40511989926677 558.0853076856538 355.35039415706063 556.0474650819287 357.2956684148545 553.4951556903394 358.48840106939065 550.94284629875 359.6811337239268 548.1432975863399 359.9964453514244 545.3437488739299 360.3117569789221 542.5900743298976 359.7166343687481 539.8363997858652 359.12151175857406 537.4169098618702 357.6782644051107 534.9974199378752 356.2350170516474 533.1654358676433 354.0947533337826 531.3334517974113 351.95448961591785 530.2807827966924 349.3412957098868 529.2281137959734 346.7281018038558 529.0649745870205 343.9155798014362 528.9018353780676 341.1030577990166 529.6453066791227 338.38567949629544 530.3887779801777 335.6683011935743 530.3876905055433 335.67067604662446 530.3866030309089 335.67305089967465 533.453688386179 332.64119215039835 536.5207737414491 329.60933340112206 542.0041884872783 325.0916381943346 547.4876032331075 320.5739429875472 557.0660131923171 319.1161202482207 566.6444231515267 317.65829750889424 572.667674451073 317.6605327209822 578.6909257506195 317.66276793307014 584.9355662228495 317.65275642363406 591.1802066950794 317.64274491419803 597.8613518104974 318.29247308067715 604.5424969259154 318.94220124715633 610.6206630297174 322.1987510054163 616.6988291335196 325.4553007636762 623.2996631239228 328.4499540212523 629.9004971143261 331.44460727882847 635.6567311963361 335.6486462142733 641.412965278346 339.8526851497181 647.4164403843304 344.5106168676043 653.4199154903148 349.16854858549044 660.0267418008557 351.06737691219763 666.6335681113967 352.9662052389048 670.5845770825166 359.97707754639634 674.5355860536365 366.9879498538878 678.1000910572159 374.9804821505147 681.6645960607954 382.9730144471417 681.6514938657936 389.4207362998575 681.6383916707917 395.8684581525732 680.5672561309741 401.8473361282611 679.4961205911566 407.8262141039489 678.3329603778494 414.2837878308578 677.1698001645423 420.74136155776665 675.0978750974184 427.56470100501724 673.0259500302944 434.38804045226783 669.4565797022362 441.20870574979506 665.8872093741782 448.02937104732234 661.9409883815857 453.73800224219207 657.9947673889933 459.4466334370618 651.3052581447653 463.752708728075 644.6157489005371 468.0587840190882 635.8876364903085 470.9298392814866 627.1595240800798 473.8008945438849 620.2134470763199 473.17565002341155 613.26737007256 472.5504055029382 605.886852738508 469.24247529801164 598.5063354044561 465.93454509308515 594.3628575030692 458.85440899511354 590.2193796016824 451.7742728971419 589.0421526790011 457.7001420013777 587.8649257563198 463.62601110561354 586.745582201363 470.1180599464061 585.6262386464063 476.6101087871986 583.231306247729 483.573655291525 580.8363738490517 490.53720179585133 580.3096878999781 496.9681460312926 579.7830019509045 503.3990902667338 579.7699366166316 509.91774164045694 579.7568712823588 516.43639301418 579.7381380461185 522.513930638977 579.7194048098781 528.5914682637739 577.6613529289634 534.4424022107955 575.6033010480487 540.2933361578172 578.6492301470671 547.0245098953274 581.6951592460854 553.7556836328376 581.6799448191337 559.864013798529 581.6647303921819 565.9723439642204 581.697571754237 572.0666355332273 581.730413116292 578.1609271022342 582.2902841299051 585.0864413228919 582.8501551435184 592.0119555435496 584.4099836036514 597.9726009648375 585.9698120637846 603.9332463861253 587.5752202903952 609.8499449376616 589.1806285170057 615.7666434891978 591.3719686039158 623.1403003321421 593.5633086908259 630.5139571750865 599.6681882080713 636.2778535643229 605.7730677253168 642.0417499535592 600.5334350347384 638.8368944993024 595.29380234416 635.6320390450455 602.2697616411996 632.3732650407874 609.2457209382392 629.1144910365293 615.6667422758239 625.7862668128007 622.0877636134086 622.4580425890722 616.8872668652554 625.6987260308474 611.6867701171021 628.9394094726225 617.3557935939604 624.7166978629946 623.0248170708186 620.4939862533666 628.1076453427314 616.18819530498 633.1904736146442 611.8824043565934 640.5504334906733 611.5110246753611 647.9103933667024 611.1396449941287 654.3011061384705 612.1579595986944 660.6918189102386 613.1762742032602 667.0750266897985 615.6333100098296 673.4582344693583 618.0903458163991 680.0968555952941 619.7298605175447 686.7354767212298 621.3693752186902 692.559943563579 623.231318186622 698.3844104059282 625.093261154554 704.6637935393351 626.2443437662422 710.9431766727419 627.3954263779303 717.1103849068348 633.7343966285594 723.2775931409278 640.0733668791884 724.0183332354225 646.937851553409 724.759073329917 653.8023362276298 726.1398104083905 661.261777830056 727.5205474868642 668.721219432482 726.4051058831399 674.698134191327 725.2896642794157 680.6750489501719 723.193134455302 687.1705649679977 721.0966046311883 693.6660809858236 719.0342178120329 700.8315581670411 716.9718309928775 707.9970353482586 715.6444761621683 714.2244158579435 714.3171213314591 720.4517963676285 711.7874771741772 725.9486376201523 709.2578330168952 731.4454788726763 704.3201234086707 736.8952357442357 699.3824138004463 742.3449926157951 693.1691251843706 746.4765943831454 686.9558365682948 750.6081961504957 678.3618391674707 753.4261719672711 669.7678417666467 756.2441477840466 663.6957059958843 756.2158935531331 657.623570225122 756.1876393222196 651.3881258791321 755.6380980047884 645.1526815331423 755.0885566873573 638.8214853041928 754.5956006603134 632.4902890752434 754.1026446332695 625.6095813820888 754.0476961922616 618.7288736889342 753.9927477512538 612.8582069846827 752.1731981265247 606.9875402804314 750.3536485017955 601.2838932909017 747.2302253513041 595.5802463013721 744.1068022008126 589.8241940384885 741.4008715488476 584.068141775605 738.6949408968827 574.8722448859819 735.3833518426411 565.6763479963587 732.0717627883994 560.593404657018 727.8638964374084 555.5104613176775 723.6560300864172 550.0986172644709 720.7641682515934 544.6867732112643 717.8723064167698 540.1722341298341 713.6423139034055 535.6576950484041 709.412321390041 531.0547813643569 705.5467094036212 526.4518676803098 701.6810974172015 522.696081972105 696.8818072920001 518.9402962639004 692.0825171667987 516.014876503993 685.7661980695066 513.0894567440856 679.4498789722146 510.1518072126688 672.4971919726675 507.214157681252 665.5445049731202 506.0314183630229 659.0060250316697 504.8486790447938 652.4675450902192 503.26618500158474 645.1580215115514 501.6836909583757 637.8484979328837 500.3600891818444 630.2143023065635 499.0364874053131 622.5801066802433 497.76756887607866 616.3525087464841 496.4986503468442 610.1249108127248 495.4410225473017 603.8207441082088 494.3833947477592 597.516577403693 493.87657537020164 590.1647056792942 493.369755992644 582.8128339548955 492.3113171212494 576.3140625185677 491.25287824985475 569.8152910822399 490.11082475085703 563.1813085006329 488.9687712518593 556.5473259190258 487.97659586439613 550.5381493790553 486.984420476933 544.5289728390848 485.94963499594326 538.1046768796903 484.9148495149536 531.6803809202956 483.95395450040473 525.6861159815384 482.9930594858559 519.6918510427811 482.53835968583826 512.1911775489281 482.0836598858206 504.6905040550751 482.11481797142915 496.9857149917149 482.14597605703773 489.28092592835463 482.2151135001403 481.9330680271382 482.28425094324285 474.5852101259217 483.01501062431305 467.2765549563126 483.74577030538325 459.9678997867035 485.41598203160817 452.72698543227443 487.0861937578331 445.4860710778454 488.26133747434193 438.6135993254698 489.43648119085077 431.7411275730942 490.73073632407494 425.86396844068656 492.0249914572991 419.98680930827885 494.2216653265407 413.8317157232477 496.4183391957822 407.6766221382166 499.8460098699144 398.93133450620047 503.2736805440466 390.18604687418434 505.77926605992616 384.40163561584404 508.2848515758057 378.61722435750374 511.5552864690668 373.11019355196623 514.8257213623278 367.6031627464287 517.7538428075723 361.5517056041757 520.6819642528167 355.50024846192275 522.5524073055815 352.2149340446769 524.4228503583463 348.92961962743107 525.307116227164 347.6914653637067 526.1913820959818 346.45331109998233 527.3462701354888 345.4627629064358 528.5011581749958 344.47221471288924 529.8595462380738 343.78684329707005 531.2179343011518 343.1014718812509 532.7008728097511 342.7611110620486 534.1838113183504 342.42075024284634 535.7051118166756 342.4451818070647 537.2264123150009 342.4696133712832 538.6976567466113 342.857417355262 540.1689011782219 343.2452213392408 541.5045807476263 343.9738585572103 542.8402603170308 344.7024957751797 543.9627452648988 345.7296177977966 545.0852302127668 346.7567398204135 545.9292816611885 348.02265026746414 546.7733331096101 349.2885607145148 547.2898947487456 350.71968481133814 547.8064563878812 352.1508089081615 547.9655056309934 353.663969655009 548.1245548741058 355.1771304018565 547.9168477717124 356.6843828250259 547.7091406693188 358.1916352481953 547.1467491679696 359.60537776603405 546.5843576666203 361.0191202838728 546.584659904137 361.0185662461896 Z" fill="hsl(28, 54%, 35%)"></path><path d="M 660.101284346112 672.2506945180618 Q 660.101284346112 672.2506945180618 650.9732072676518 670.2966012324403 641.8451301891914 668.3425079468187 646.9948468173375 656.0452953381921 652.1445634454834 643.7480827295656 664.5250288288498 641.080936746393 676.9054942122164 638.4137907632206 686.961794748026 646.8472323035933 697.0180952838358 655.2806738439658 701.1603596024659 667.4914047758148 705.3026239210959 679.7021357076636 700.8992057901199 691.5553822170009 696.495787659144 703.4086287263382 688.5459073770176 713.9511059237714 680.5960270948912 724.4935831212044 669.7360657323254 730.6021682654268 658.8761043697598 736.7107534096491 645.3570434850474 736.2441462761709 631.8379826003348 735.7775391426927 621.2548082138194 726.4575444737068 610.6716338273038 717.1375498047208 604.3442868309547 706.0473972888644 598.0169398346056 694.957244773008 598.9378814180909 682.651928573812 599.8588230015763 670.3466123746161 607.5009715266721 660.2225268481388 615.1431200517678 650.0984413216615 628.0115022710766 644.6109306414842 640.8798844903852 639.1234199613068 653.7089710546206 641.5440249360497 666.5380576188562 643.9646299107927 674.6666646975123 654.199907565694 682.7952717761684 664.4351852205955 683.0854568268642 677.1783565095498 683.3756418775598 689.9215277985039 674.8756883627289 698.9929898777903 666.3757348478978 708.0644519570767 654.3551264016035 710.0239548673103 642.3345179553091 711.9834577775438 629.2054277804766 711.4894645503023 616.076337605644 710.9954713230607 603.3321888512688 711.2461718820566 590.5880400968937 711.4968724410527 582.0348081936968 703.0119134169258 573.4815762904998 694.5269543927989 573.1477789975287 682.4827664595825 572.8139817045576 670.4385785263663 585.76243484366 661.2319145353456 598.7108879827623 652.025250544325 609.8891031386745 657.5676989218687 621.0673182945866 663.1101472994122 625.9655413184548 674.6440447803748 630.863764342323 686.1779422613373 629.2220221540106 698.3553354328922 627.5802799656982 710.532728604447 617.8983505994721 717.6116407416068 608.216421233246 724.6905528787668 596.1237745351228 724.4733139416044 584.0311278369996 724.2560750044419 574.0243221877815 716.0288342102263 564.0175165385635 707.8015934160106 558.7247288738849 697.0861109066436 553.4319412092063 686.3706283972765 549.2017845236262 675.0819617660476 544.971627838046 663.7932951348187 544.5908106806646 649.9535774214052 544.2099935232833 636.1138597079917 558.5369822710817 630.1105010373062 572.8639710188801 624.1071423666208 579.9713784848985 633.9475756126209 587.078785950917 643.788008858621 585.6845151654677 657.1293812610776 584.2902443800184 670.4707536635342 574.4683873479325 677.8426982598942 564.6465303158466 685.2146428562543 551.1493189302096 684.747305866101 537.6521075445725 684.2799688759476 529.2517001300129 674.7847532198737 520.8512927154533 665.2895375637999 518.5976052750236 652.6982076025961 516.3439178345939 640.1068776413922 515.9170798030793 626.8883643580615 515.4902417715648 613.6698510747308 517.5825843761526 600.834072001277 519.6749269807403 587.9982929278232 531.9645424533219 580.0964136429417 544.2541579259034 572.1945343580602 554.9126446664737 579.9950765084552 565.571131407044 587.7956186588502 567.163985524257 593.2478240873156 568.7568396414699 598.700029515781 569.0389409458573 601.2661459228023 569.3210422502448 603.8322623298234 568.9808146657651 606.3913207017796 568.6405870812854 608.9503790737358 567.697804651134 611.3536468178122 566.7550222209826 613.7569145618887 565.2644795042963 615.8647136438825 563.7739367876101 617.9725127258763 561.8222641971156 619.6623377641074 559.8705916066211 621.3521628023386 557.5712204449769 622.5258010861891 555.2718492833328 623.6994393700395 552.7584191104892 624.2886789873087 550.2449889376455 624.877918604578 547.6635804333412 624.848512921025 545.0821719290367 624.8191072374719 542.5828166768287 624.1727653128064 540.0834614246206 623.5264233881409 537.8114220691989 622.3007106453927 535.5393827137773 621.0749979026444 533.6267102892305 619.3411528240119 531.7140378646836 617.6073077453793 530.2718969821927 615.466101488297 528.8297560997019 613.3248952312146 527.941964055116 610.900774803948 527.0541720105302 608.4766543766816 522.7960119250522 596.3587100386301 518.5378518395742 584.2407657005784 516.4248887734441 571.7432199707883 514.3119257073139 559.2456742409983 513.928742001289 546.8559462085364 513.5455582952643 534.4662181760746 513.836169645497 522.5779741585326 514.1267809957295 510.68973014099066 513.8666892691817 498.22713908394115 513.6065975426341 485.76454802689165 513.4435438443597 473.369502336619 513.2804901460853 460.9744566463464 515.2447619199526 451.1550857171727 517.2090336938198 441.33571478799905 518.3208889588191 439.0279391161607 519.4327442238184 436.7201634443224 521.0645930528892 434.74554447325585 522.69644188196 432.7709255021893 524.7534411444847 431.24422817927007 526.8104404070092 429.7175308563508 529.173037209202 428.7274869017184 531.5356340113947 427.73744294708604 534.066514116106 427.3415937619008 536.5973942208174 426.9457445767156 539.1494627574486 427.16709693421933 541.7015312940798 427.38844929172313 544.1264619193735 428.2141381824976 546.5513925446672 429.0398270732721 548.7082481767463 430.42186342019056 550.8651038088256 431.8038997671091 552.6285278970144 433.66195955275407 554.3919519852031 435.52001933839904 555.659454238642 437.74611204072824 556.9269564920808 439.9722047430574 557.6248696202463 442.43694974961886 558.3227827484118 444.9016947561803 558.4105440075039 447.4618409713872 558.4983052665959 450.02198718659406 557.9708139681126 452.5287387921306 557.4433226696292 455.0354903976671 556.1796519194386 468.27925664095574 554.915981169248 481.52302288424437 549.6913904167307 493.69514083115166 544.4667996642132 505.8672587780589 530.6599382356978 512.2979635084482 516.8530768071823 518.7286682388375 508.06986710574665 509.06381612771753 499.286657404311 499.3989640165976 500.8820417526684 486.09160424625765 502.4774261010258 472.7842444759177 505.9295690798508 459.72626445301876 509.38171205867576 446.66828443011985 512.8239656617769 433.8774444999232 516.266219264878 421.0866045697265 521.5931397002046 408.7789119606333 526.920060135531 396.47121935154007 532.4008307268716 385.6873044989154 537.8816013182121 374.90338964629075 543.7985454884612 364.16025545940886 549.7154896587102 353.41712127252697 558.1871879132138 343.0428261866079 566.6588861677175 332.6685311006888 579.8415040466343 328.60590654396043 593.0241219255511 324.54328198723204 604.9699157204477 329.20801178899217 616.9157095153445 333.8727415907523 628.1537135622514 341.1811169054322 639.3917176091583 348.4894922201121 647.9487748045459 356.9809595674599 656.5058319999335 365.4724269148076 661.1289553454428 376.54676559841465 665.7520786909521 387.6211042820217 663.7189578486344 400.71325063066286 661.6858370063168 413.80539697930396 655.6909517678378 424.9405396639679 649.6960665293586 436.0756823486318 638.6564418190914 442.155785881011 627.6168171088241 448.2358894133902 615.3211420466516 444.3181051720866 603.0254669844792 440.40032093078287 597.6143785661598 429.5240282238145 592.2032901478404 418.6477355168462 590.9136572724663 406.8093391835321 589.624024397092 394.97094285021797 596.5156235142341 405.31257878936003 603.4072226313763 415.65421472850204 596.355542704638 428.3498021807179 589.3038627778997 441.04538963293373 582.5411154656565 447.718921171776 575.7783681534133 454.3924527106183 572.8405622996545 456.2553112099339 569.9027564458956 458.11816970924957 566.5239132849304 458.94543261573756 563.1450701239652 459.7726955222256 559.6789554266746 459.4777481912005 556.2128407293841 459.1828008601753 553.0223576195399 457.79652435505386 549.8318745096958 456.4102478499325 547.2510674111045 454.07778568674246 544.6702603125133 451.7453235235524 542.9693404096643 448.71088510648997 541.2684205068152 445.6764466894275 540.6254745625359 442.25773852177304 539.9825286182567 438.8390303541186 540.4648732426344 435.39399208347686 540.9472178670123 431.94895381283516 542.5043514505483 428.8382818555441 544.0614850340843 425.7276098982531 546.5303752795387 423.27699242937877 548.9992655249932 420.82637496050444 552.1214189719435 419.29239227593814 555.2435724188937 417.75840959137184 558.6920987772755 417.3016700831198 562.1406251356573 416.8449305748677 565.5544627854256 417.51325499001143 568.9683004351938 418.1815794051551 571.9900196732522 419.9049940010085 575.0117389113105 421.62840859686185 577.3249649357779 424.22647141030177 579.6381909602452 426.82453422374175 581.0007283957274 430.0252273923791 582.3632658312096 433.2259205610165 582.6324566485366 436.69413066519405 582.9016474658638 440.16234076937155 582.0493073154023 443.5349452956633 581.1969671649408 446.907549821955 579.3123362854399 449.8314361861771 577.4277054059389 452.75532255039917 574.7081051479765 454.9243590783865 571.9885048900142 457.0933956063738 568.7186781185037 458.28048360107607 565.4488513469934 459.4675715957784 561.9711497880626 459.54842263078945 558.4934482291317 459.62927366580055 555.1719881540246 458.5954226164122 551.8505280789174 457.5615715670238 549.033067234278 455.5212629110172 546.2156063896384 453.4809542550105 544.1971336696379 450.6478088472586 542.1786609496372 447.81466343950666 541.1705109808846 444.4853123520789 540.162361012132 441.1559612646511 540.2700873624815 437.6789884352645 540.3778137128311 434.20201560587793 541.5901374049641 430.94146100760094 542.8024610970972 427.68090640932394 544.9924515204251 424.978150969299 547.182441943753 422.2753955292741 547.1800331644464 422.27754022375586 547.1776243851398 422.27968491823765 554.1321016482138 414.5549571599902 561.086578911288 406.83022940174277 565.2320034842585 394.8754902552847 569.3774280572289 382.9207511088267 579.4769364406066 373.08597577242404 589.5764448239842 363.2512004360213 602.9201098982198 363.5857123787723 616.2637749724555 363.9202243215233 623.6752364676573 373.34808499513304 631.0866979628591 382.77594566874274 625.0883596754136 393.1708785846889 619.0900213879681 403.56581150063505 615.4095223664481 392.2474582473262 611.7290233449281 380.9291049940174 600.0260747040352 376.4958854860952 588.3231260631424 372.062665978173 582.2257408351259 382.63525051420515 576.1283556071095 393.20783505023724 570.510173948134 404.08386302161676 564.8919922891585 414.9598909929963 560.0688967934259 426.3918741646437 555.2458012976934 437.8238573362911 552.2766450575255 449.44779974651146 549.3074888173576 461.0717421567318 541.7735515354995 471.16685904196163 534.2396142536413 481.2619759271915 524.39624319924 473.8036595953954 514.5528721448386 466.34534326359926 515.8806105255262 453.8415349172688 517.2083489062137 441.33772657093834 518.319973388087 439.02983972511254 519.4315978699601 436.7219528792868 521.0632492289749 434.74717073321074 522.6949005879897 432.7723885871346 524.7517471704972 431.2454855719229 526.8085937530047 429.7185825567113 529.1710915389892 428.7283023473493 531.5335893249737 427.7380221379873 534.0644298321122 427.34191986677126 536.5952703392506 426.94581759555524 539.1473609983573 427.166914745099 541.6994516574639 427.3880118946428 544.1244648395218 428.21345828822666 546.5494780215798 429.03890468181055 548.7064718465092 430.42072533625606 550.8634656714385 431.80254599070156 552.6270755567884 433.6604294246477 554.3906854421384 435.51831285859384 555.6584102985096 437.7442787995674 556.9261351548806 439.970244740541 557.6242947540568 442.43491994346607 558.3224543532331 444.8995951463911 558.4104716265074 447.4597325726713 558.4984888997817 450.0198699989516 557.971248279096 452.5266743410841 557.4440076584102 455.03347868321663 556.5745475125674 464.98373112644526 555.7050873667246 474.9339835696739 555.9708211452862 486.9888903880167 556.236554923848 499.04379720635956 556.2093618391519 511.42275608434454 556.1821687544559 523.8017149623296 556.2388571832907 537.6120405613931 556.2955456121255 551.4223661604566 558.2939604745006 563.2605462719231 560.2923753368759 575.0987263833896 564.5243629692957 586.8983354073405 568.7563506017156 598.6979444312913 569.0387085163328 601.2640326153514 569.32106643095 603.8301207994117 568.9810947540082 606.3892131813311 568.6411230770664 608.9483055632504 567.6985809784029 611.3516675735533 566.7560388797394 613.7550295838562 565.2657069504137 615.8629777095824 563.7753750210879 617.9709258353087 561.8238714228554 619.6609460323494 559.8723678246229 621.3509662293902 557.5731140383037 622.5248344444883 555.2738602519846 623.6987026595863 552.7604890156698 624.2881936169263 550.247117779355 624.8776845742661 547.6657063473892 624.8485370317101 545.0842949154236 624.8193894891541 542.5848750415199 624.1732975032451 540.0854551676163 623.5272055173361 537.8132932522808 622.3017199846516 535.5411313369452 621.0762344519671 533.6282855374541 619.342580649246 531.715439737963 617.6089268465247 530.2730847420576 615.4678648142363 528.8307297461521 613.326802781948 527.942695293963 610.9027711460064 527.0546608417737 608.4787395100649 530.6707967000996 610.5586625990825 534.2869325584255 612.6385856881002 546.2474888651902 612.7687096221429 558.2080451719551 612.8988335561855 558.6687359171692 624.8586551316303 559.1294266623834 636.818476707075 556.9044306735159 649.5029145223965 554.6794346846485 662.187352337718 569.9189453057895 654.9769105821184 585.1584559269305 647.7664688265188 589.3850985734631 659.4662685273554 593.6117412199957 671.1660682281919 601.3846605253146 681.1225789891514 609.1575798306336 691.0790897501109 613.3542397582385 679.3707515494345 617.5508996858433 667.662413348758 630.3622567486531 668.4665365778264 643.1736138114628 669.2706598068947 651.5650499260605 677.6807254809053 659.9564860406582 686.0907911549159 669.3329133993661 678.3039608179158 678.7093407580742 670.5171304809156 669.4152952958248 671.3844997197082 660.1212498335755 672.2518689585007 660.1112670898438 672.2512817382812 Z" fill="hsl(28, 54%, 35%)"></path><path d="M 260.45124876627193 370.31341682127044 Q 260.45124876627193 370.31341682127044 258.08385822432166 371.594984650026 255.71646768237136 372.87655247878155 249.2429168294355 375.60605957371376 242.7693659764996 378.335566668646 236.59985264015512 380.4310701748612 230.4303393038106 382.5265736810764 223.48606780628825 385.0800306962734 216.54179630876587 387.6334877114705 209.74052144229762 388.8918507922126 202.9392465758294 390.1502138729547 196.41460905528746 390.4172052670348 189.8899715347455 390.68419666111487 183.369685780354 390.798843476928 176.84940002596247 390.91349029274124 170.81446085771802 391.19162431924906 164.77952168947357 391.46975834575693 158.42420964555737 391.876411270983 152.06889760164117 392.283064196209 144.90460168785125 392.3933555574708 137.74030577406137 392.50364691873256 130.0279612156325 392.1238141623112 122.31561665720362 391.7439814058899 116.00082632706372 390.6977117380119 109.68603599692382 389.65144207013395 100.64529545095758 388.45305843298206 91.60455490499135 387.2546747958302 85.53868630748707 384.6314658908383 79.47281770998279 382.0082569858464 72.69036929378454 378.7585818163459 65.90792087758629 375.50890664684533 60.51254774996056 372.0229766583805 55.117174622334836 368.5370466699157 49.04860940193717 362.5930879592071 42.9800441815395 356.64912924849847 38.613546417670165 350.36919993622325 34.247048653800825 344.089270623948 30.83862154642089 337.5729637975106 27.43019443904095 331.0566569710733 24.80317404734575 324.45980897872164 22.17615365565055 317.86296098637 20.86024922073357 311.0567576538684 19.544344785816598 304.25055432136674 18.950948424636497 297.4391952132272 18.357552063456396 290.6278361050877 17.449081930593824 284.3349720428875 16.540611797731252 278.0421079806873 16.37611313319188 271.2037871814566 16.21161446865251 264.3654663822259 16.675051311069517 256.7354990487223 17.138488153486527 249.10553171521875 19.24516107299533 242.5354195663841 21.351833992504133 235.96530741754944 24.60947003969408 229.1626900857143 27.86710608688403 222.36007275387914 31.3938438468515 216.50551966550938 34.92058160681897 210.65096657713963 40.94979579844107 203.18482186577694 46.979009990063176 195.71867715441422 51.8679678058075 191.92849030934104 56.75692562155183 188.13830346426784 62.223888687165825 184.19782939039288 67.69085175277982 180.25735531651793 72.87005475509415 176.2497989407276 78.04925775740845 172.24224256493727 83.99800842055899 169.29529249423067 89.94675908370951 166.34834242352406 97.1625657014497 163.65955690060537 104.37837231918986 160.97077137768667 110.85648851823855 160.15071457169216 117.33460471728723 159.33065776569762 123.41365824517348 159.23658469348328 129.49271177305974 159.14251162126897 137.53527072146574 161.15520166580876 145.57782966987173 163.16789171034858 150.91049279435833 166.0127865776547 156.2431559188449 168.8576814449608 159.82665042378858 174.55056263551484 163.41014492873225 180.2434438260689 167.66881922834799 185.1376469223286 171.92749352796372 190.03185001858833 172.67437455448427 196.1575381221642 173.42125558100483 202.28322622574007 171.0839924273264 209.55312226559502 168.74672927364793 216.82301830544998 162.3508606252193 222.84271651895384 155.95499197679067 228.8624147324577 150.43790016630302 231.9905520103212 144.92080835581538 235.11868928818473 138.53448523157462 236.04727887222873 132.14816210733386 236.97586845627276 125.28992209610044 234.4068251173738 118.43168208486702 231.83778177847486 112.95910648178756 228.37980551958918 107.4865308787081 224.92182926070353 102.69695032996381 218.79449809558827 97.90736978121954 212.667166930473 94.83479914672051 207.03147902247295 91.76222851222148 201.3957911144729 88.46414587702134 194.448327005699 85.16606324182119 187.50086289692516 82.86057945914536 179.88013291660775 80.5550956764695 172.25940293629031 78.8392419292046 165.49488339144693 77.12338818193969 158.73036384660352 76.97832888273086 151.9325418517683 76.83326958352205 145.1347198569331 78.52314133209407 138.8253739684087 80.21301308066609 132.51602807988436 83.05176570341456 126.80033662317385 85.89051832616302 121.08464516646335 88.86321357675638 114.7721568852773 91.83590882734975 108.45966860409126 95.40007161114201 100.76335286604433 98.96423439493428 93.06703712799738 101.5760169218659 87.40110445020886 104.18779944879752 81.73517177242034 107.43967921643065 76.28136257375172 110.69155898406379 70.82755337508311 114.2293511929017 64.97238020066332 117.76714340173962 59.11720702624354 124.37536778420079 52.41196729243664 130.98359216666196 45.70672755862975 136.59156608517017 39.98037604744901 142.19954000367838 34.254024536268275 147.30210170773776 30.681071633200364 152.40466341179715 27.108118730132453 158.46933584094722 24.071840229161268 164.5340082700973 21.035561728190086 170.1163343359295 18.472039023358313 175.6986604017617 15.90851631852654 183.05331271093388 14.228197069258604 190.40796502010608 12.547877819990667 196.79912178791972 11.948786863135032 203.19027855573339 11.349695906279397 209.99644836997993 10.813457941915427 216.80261818422647 10.277219977551457 223.09277731730123 10.210133806459433 229.38293645037595 10.14304763536741 237.0033101513758 11.215569216336036 244.62368385237568 12.288090797304662 251.58703240548888 13.424428072336308 258.5503809586021 14.560765347367955 266.2821802604668 18.213249057917025 274.01397956233154 21.865732768466096 280.0770194727652 25.602603633604296 286.1400593831988 29.339474498742497 292.2662371759108 34.29615375334647 298.39241496862286 39.25283300795044 303.108331928209 45.259796200279695 307.82424888779514 51.26675939260895 311.8319987805438 57.30624062604709 315.8397486732925 63.34572185948524 318.86583890244503 69.52004343144577 321.89192913159764 75.69436500340632 323.5116525005475 82.70908950971071 325.13137586949733 89.7238140160151 325.7497277765304 96.03779750102208 326.36807968356345 102.35178098602907 326.3888173416859 108.88640350014059 326.4095549998084 115.4210260142521 325.0178314430551 122.22959301372245 323.6261078863019 129.0381600131928 318.94815824820023 136.1290741232318 314.2702086100986 143.21998823327078 306.8306957181581 146.3891943116761 299.3911828262176 149.55840039008143 293.2116446379184 150.224097404928 287.03210644961933 150.88979441977452 280.36897950798004 148.05079888955368 273.70585256634075 145.21180335933286 269.24308418148456 141.04496720464692 264.7803157966284 136.87813104996098 259.2419105065443 128.3517826389541 253.70350521646026 119.82543422794721 251.5060490018815 113.87142172794375 249.30859278730276 107.91740922794028 247.84962115093498 101.60873896777333 246.39064951456723 95.30006870760639 248.19149237222143 84.74763204277195 249.99233522987564 74.19519537793752 256.2004839017903 67.11549991829958 262.4086325737049 60.03580445866162 266.6844449052103 55.49848143899558 270.9602572367156 50.961158419329536 275.7318869133416 47.21427610497771 280.5035165899676 43.46739379062589 285.9482696050194 40.34484152723468 291.39302262007124 37.222289263843464 297.97627405482666 35.03479409002156 304.5595254895821 32.84729891619967 311.2068838620597 30.333833635631276 317.8542422345374 27.820368355062882 324.0867251662137 26.11054666316752 330.3192080978899 24.400724971272158 336.582236963426 22.92373701867321 342.8452658289621 21.446749066074265 350.31867725044503 19.737503686504255 357.79208867192796 18.02825830693424 365.36193330226774 16.646518865645753 372.93177793260753 15.264779424357265 379.4109304323948 13.67962509854334 385.8900829321821 12.094470772729416 392.9779321889246 10.883354903658901 400.06578144566714 9.672239034588387 406.1281851125698 9.045671763964446 412.19058877947236 8.419104493340505 418.44650847771686 8.40467660392086 424.70242817596136 8.390248714501215 430.858742195552 8.41507677035026 437.01505621514264 8.439904826199303 444.1264946551758 9.645996729030504 451.237933095209 10.852088631861703 459.02428541422967 11.75648532173312 466.8106377332503 12.660882011604535 473.4182113428274 13.692411848131576 480.02578495240454 14.723941684658616 487.5128560161145 17.10129354556166 494.9999270798245 19.4786454064647 501.88014027367535 22.84008244453126 508.76035346752616 26.201519482597817 514.645685124969 32.8582319820284 520.5310167824117 39.514944481458976 524.601501611924 45.91053740389503 528.6719864414364 52.30613032633108 530.0106943254177 58.17582896550671 531.3494022093989 64.04552760468235 532.2319731429586 70.41836260318914 533.1145440765184 76.79119760169594 533.8476596891087 82.9577276187668 534.580775301699 89.12425763583764 535.0544284364596 95.72586694927892 535.5280815712204 102.32747626272023 535.6240243554035 109.15228799636637 535.7199671395867 115.9770997300125 534.5650123637151 125.12926409710938 533.4100575878437 134.28142846420627 528.8675230652109 140.9620015149536 524.3249885425782 147.64257456570093 517.7632580389921 152.38461655040524 511.2015275354061 157.12665853510956 504.84831421369256 157.11637992358064 498.49510089197906 157.10610131205172 491.97324035478425 154.3668882283637 485.4513798175894 151.6276751446757 479.6997728920743 148.53404135521086 473.9481659665592 145.44040756574603 469.86582739560004 138.72398790077293 465.78348882464087 132.00756823579982 463.59396775502637 125.3420157791748 461.4044466854119 118.6764633225498 460.0919664937146 112.47394856040164 458.77948630201723 106.27143379825348 459.5167459312512 98.10324057940491 460.2540055604851 89.93504736055633 465.2537295833371 81.89216428936993 470.253453606189 73.84928121818355 475.2928358771215 69.78038481840778 480.332218148054 65.71148841863203 485.9346776628123 62.276813561596356 491.5371371775707 58.842138704560675 497.76728651451606 56.51152422275365 503.99743585146143 54.180909740946625 511.5407045030923 52.650743746272596 519.0839731547231 51.120577751598574 527.1234061637804 49.23904334172978 535.1628391728375 47.35750893186099 542.7878227463382 46.136642399824126 550.4128063198388 44.91577586778727 557.3543102964259 43.90233434189375 564.2958142730131 42.88889281600022 570.5786439446831 41.819364143947055 576.8614736163532 40.74983547189389 583.2365717146065 39.7143815713554 589.6116698128599 38.67892767081692 596.2675064498476 38.62171152025595 602.9233430868354 38.56449536969498 609.1471036671065 37.51845584999306 615.3708642473777 36.47241633029114 621.4817332556445 36.44866490066991 627.5926022639114 36.424913471048676 636.9178938251118 37.99836406500118 646.2431853863121 39.57181465895368 653.9050701262365 41.76303069598903 661.5669548661608 43.95424673302439 668.0760968928666 45.70125797001859 674.5852389195726 47.448269207012785 680.9105281618608 51.52875674342525 687.235817404149 55.609244279837704 691.3137182261639 60.117142456959485 695.391619048179 64.62504063408126 699.8229223810453 70.6411981539659 704.2542257139115 76.65735567385055 706.6516021989244 82.4531289562107 709.0489786839373 88.24890223857086 711.6279294831022 95.74978958720241 714.2068802822671 103.25067693583397 716.0585301377037 109.92702824758713 717.9101799931403 116.6033795593403 718.4777871774212 123.06231254610248 719.045394361702 129.52124553286467 717.3998333827301 137.5927340766051 715.7542724037581 145.66422262034556 713.1284339551019 151.40372536043935 710.5025955064456 157.14322810053312 705.1954424684043 165.31654775480956 699.8882894303631 173.48986740908597 694.5783775345199 177.1457389731038 689.2684656386765 180.80161053712158 683.4294990615803 183.9942811091488 677.590532484484 187.18695168117605 671.260915208931 188.5108804513432 664.9312979333781 189.8348092215104 655.1009451816251 188.71482454534276 645.2705924298721 187.5948398691751 638.3841184084364 186.28154449658 631.4976443870007 184.9682491239849 626.011813076298 180.28350399676145 620.5259817655952 175.59875886953802 618.846973025271 169.30109379467194 617.1679642849468 163.00342871980587 616.4629793058373 156.9371091660011 615.7579943267278 150.87078961219635 617.0814089577339 142.26529802457262 618.4048235887398 133.65980643694888 622.1122127072645 127.89567026261719 625.8196018257892 122.1315340882855 630.9728670121381 117.03187670044977 636.1261321984869 111.93221931261405 644.0506649177019 106.76144110784944 651.975197636917 101.59066290308482 658.7356063847208 99.51864480768482 665.4960151325245 97.44662671228483 671.7846070666376 96.71750095969033 678.0731990007508 95.98837520709583 684.2059734552499 96.00605744910325 690.3387479097489 96.02373969111066 696.4199419776087 96.58229783543672 702.5011360454685 97.14085597976278 709.6865932676715 99.04248172939236 716.8720504898744 100.94410747902194 721.9752107569143 105.44052944865453 727.0783710239543 109.93695141828714 732.2895139308469 114.06221180043849 737.5006568377393 118.18747218258983 741.387496379211 124.80167965000194 745.2743359206828 131.41588711741406 748.6925130436241 138.10285457710103 752.1106901665654 144.789822036788 754.9660674916972 151.68974658671067 757.8214448168292 158.58967113663334 759.2870095170101 165.88206447530183 760.752574217191 173.17445781397032 761.753378649684 179.5537783846725 762.754183082177 185.93309895537467 762.819967166374 191.99855018049055 762.885751250571 198.06400140560646 762.868213928929 204.27843964019934 762.8506766072869 210.4928778747922 762.3090486155988 216.89500550189447 761.7674206239108 223.29713312899673 759.4380183431399 231.4682734291896 757.1086160623689 239.63941372938245 754.474848905299 245.99136227158567 751.8410817482292 252.34331081378892 748.8520871870724 258.23863793545587 745.8630926259156 264.13396505712285 741.4249697737539 270.83999921411123 736.9868469215922 277.54603337109955 732.7739646725997 281.9059579597171 728.5610824236071 286.2658825483347 723.9548833153672 290.86888739877816 719.3486842071271 295.4718922492217 713.987906298155 299.1335481873854 708.627128389183 302.795204125549 702.0874790652078 305.5529844887602 695.5478297412326 308.3107648519715 689.5351783660977 311.52760835150116 683.5225269909629 314.7444518510308 677.3883853587715 317.1560966832842 671.2542437265802 319.56774151553753 664.5726158081507 321.28824002337797 657.8909878897213 323.0087385312184 650.7958772464126 324.91979401108875 643.7007666031038 326.8308494909591 643.3948395370012 325.5732950742109 643.0889124708985 324.31574065746264 641.1857701490048 326.30904353974074 639.2826278271111 328.30234642201884 636.8426310556938 329.58360472281294 634.4026342842764 330.86486302360703 631.6812513693992 331.2999286606047 628.9598684545222 331.73499429760227 626.2420289057484 331.27831578376356 623.5241893569745 330.8216372699249 621.0944516925005 329.5210289662002 618.6647140280264 328.2204206624756 616.7774724227111 326.21205660159217 614.8902308173958 324.2036925407088 613.7430799654992 321.6978489699977 612.5959291136026 319.19200539928664 612.3089760121366 316.4510448020799 612.0220229106706 313.7100842048731 612.6253116251069 311.0209858792415 613.2286003395432 308.3318875536098 614.6589663822276 305.9762008041 616.0893324249122 303.62051405459016 618.1970160935958 301.8448799057167 620.3046997622795 300.06924575684326 622.8690260204766 299.0595735727152 625.4333522786736 298.04990138858705 628.1858354902346 297.91190411341006 630.9383187017955 297.773906838233 633.5907731478849 298.5220328231459 636.2432275939742 299.2701588080588 638.5179405939065 300.82607906495514 640.7926535938387 302.3819993218515 642.4514620960551 304.5828085891111 644.1102705982714 306.78361785637077 644.9794969147068 309.3988908227544 645.8487232311422 312.0141637891381 645.8373591370125 314.77008068470036 645.8259950428828 317.52599758026264 644.9352303618432 320.1340131785468 644.0444656808035 322.742028776831 642.3675637100978 324.9290831562474 640.6906617393921 327.11613753566377 638.4031945580124 328.6532455253612 636.1157273766327 330.1903535150587 633.457193402302 330.91657950275874 630.7986594279714 331.64280549045884 628.0474078695871 331.4821134235443 625.2961563112028 331.32142135662986 622.7402439331877 330.2906357369253 620.1843315551724 329.2598501172207 618.0913630581998 327.46689447121014 615.9983945612272 325.6739388251995 614.5875042994203 323.30653608231455 613.1766140376133 320.93913333942953 612.595522593822 318.24515119178386 612.0144311500308 315.55116904413813 612.3239789518134 312.8126681337325 612.633526753596 310.0741672233268 613.8013040643932 307.57786931837467 614.9690813751903 305.0815714134225 614.9676388124863 305.0836804007705 614.9661962497821 305.0857893881185 623.525395767555 300.2879348480986 632.0845952853279 295.4900803080787 638.0662386154422 294.39338767698564 644.0478819455566 293.29669504589265 652.574994124104 291.2512865467174 661.1021063026515 289.2058780475421 669.4991949611363 285.1954848222312 677.8962836196209 281.1850915969203 684.5466922505577 277.67674250256596 691.1971008814944 274.1683934082116 696.307904907969 270.38970307615523 701.4187089344438 266.6110127440988 705.917629000797 261.6504204196639 710.4165490671502 256.689828095229 713.9560417535889 251.48414789161444 717.4955344400277 246.27846768799984 720.5596227631352 239.6027192579349 723.6237110862428 232.92697082786992 725.8554261053946 226.30822059510956 728.0871411245464 219.6894703623492 728.5799628473478 213.55435026674056 729.0727845701492 207.41923017113191 729.0627843648884 200.56122721405163 729.0527841596277 193.70322425697134 728.4672106405155 187.06724124002176 727.8816371214034 180.4312582230722 726.2664245377682 173.72930164892668 724.6512119541331 167.02734507478115 721.4994869451136 160.30130376803882 718.3477619360941 153.5752624612965 716.2679258919362 147.60510405457688 714.1880898477783 141.6349456478573 710.0244936576003 136.77707062807042 705.8608974674221 131.9191956082835 699.6164481809701 131.02328818966248 693.3719988945182 130.12738077104143 686.048590619695 129.3977255622955 678.7251823448718 128.66807035354958 672.1181214030257 130.46847603336735 665.5110604611798 132.26888171318512 660.1102794686614 135.73480875356745 654.7094984761429 139.20073579394978 652.3692092849326 144.91078753192633 650.0289200937223 150.6208392699029 650.9685716796987 156.64580819008563 651.9082232656751 162.67077711026835 647.5772254283195 157.99047451757772 643.2462275909638 153.3101719248871 649.2627351627119 154.48148351328746 655.27924273446 155.65279510168781 661.8140954804177 155.50443997241848 668.3489482263753 155.35608484314918 674.9383771615496 151.41469355393033 681.5278060967238 147.4733022647115 677.3610394935645 152.1120654480182 673.194272890405 156.75082863132494 677.4774550664488 148.2377404479514 681.7606372424925 139.72465226457786 683.9162298137114 133.66240103037597 686.0718223849302 127.60014979617408 683.9120569067502 119.62882707269094 681.7522914285703 111.6575043492078 679.5072438437824 105.99587123868528 677.2621962589943 100.33423812816275 673.8490513771997 93.53880401669518 670.4359064954051 86.74336990522761 666.0600116247407 82.13448848634616 661.6841167540763 77.52560706746469 655.4101061474114 76.28905663557686 649.1360955407466 75.052506203689 642.3429347083213 73.22776618658659 635.5497738758961 71.40302616948419 628.7554104077642 70.89173910555519 621.9610469396322 70.3804520416262 615.9267237475145 70.78231119646216 609.8924005553969 71.18417035129812 603.6846393256575 71.81929988170937 597.4768780959181 72.45442941212062 591.3087097813043 72.68384575789233 585.1405414666906 72.91326210366404 576.7737473189098 74.63340313395052 568.4069531711291 76.35354416423701 561.2799516378211 77.5641564159381 554.1529501045133 78.77476866763921 547.7435571371025 79.70137027698595 541.3341641696917 80.6279718863327 534.1787880561844 82.3155162070663 527.0234119426772 84.00306052779989 520.6542505562054 85.43095233861956 514.2850891697336 86.85884414943924 507.4289909744941 89.9468492884254 500.5728927792547 93.03485442741157 496.267153502054 98.48933259538916 491.9614142248533 103.94381076336676 493.0200800174464 111.45813306266304 494.07874581003955 118.97245536195932 500.4031407003748 121.14610840473031 506.72753559071015 123.31976144750129 501.8791675436961 128.3358310422277 497.030799496682 133.3519006369541 499.4047193621603 127.69163113222335 501.77863922763856 122.0313616274926 501.79088332649695 115.61019420045292 501.80312742535534 109.18902677341326 501.2960202821854 102.76455389858856 500.7889131390154 96.34008102376387 500.69933404648896 90.05436258713334 500.6097549539625 83.7686441505028 499.68921881331414 74.71576745480223 498.7686826726657 65.66289075910167 495.872785138066 59.47900513204118 492.9768876034663 53.29511950498069 486.41164725250576 51.45949829190386 479.84640690154527 49.623877078827036 472.75315357946886 47.89656860824452 465.6599002573924 46.16926013766201 459.48549595809686 45.42713380639644 453.3110916588013 44.685007475130874 447.05561669924043 43.65359862940029 440.80014173967965 42.62218978366971 434.50200889572795 42.23700588794564 428.2038760517763 41.85182199222158 420.73893612259303 41.85266005474537 413.2739961934098 41.853498117269154 407.28774158014903 42.32668014876433 401.3014869668883 42.79986218025951 393.4013263140076 44.29857900925498 385.50116566112683 45.79729583825045 378.61346668821284 47.54250390763215 371.7257677152989 49.287711977013856 364.40632762915345 50.87566154139845 357.08688754300806 52.463611105783045 350.37877289914616 53.93769725434833 343.6706582552842 55.41178340291361 337.7151674547374 56.706619053501946 331.75967665419057 58.00145470409028 325.09522251366747 60.69940118098479 318.43076837314436 63.3973476578793 312.5015551879216 65.45793205874365 306.57234200269886 67.518516459608 299.77525312878464 72.27146163056588 292.9781642548704 77.02440680152378 288.2704311296342 81.07227961111519 283.562698004398 85.1201524207066 282.38657879683115 91.10057434791209 281.21045958926436 97.08099627511757 286.733077117196 104.46761187064678 292.2556946451277 111.85422746617597 293.0068839207361 105.27463680843505 293.75807319634447 98.69504615069411 293.1503798446745 91.81740503553702 292.54268649300445 84.93976392037993 287.48473598365115 78.68978563876215 282.4267854742978 72.43980735714437 278.22761525043035 67.27344076225981 274.0284450265629 62.10707416737523 268.07097892535074 56.9408943430224 262.1135128241386 51.77471451866957 254.39684763961822 49.371111092590795 246.68018245509788 46.96750766651203 240.33508910951963 45.62654242412251 233.98999576394135 44.285577181733 226.96640778490286 43.76161106809113 219.9428198058644 43.237644954449266 213.5298567085389 44.28050850647401 207.11689361121338 45.32337205849874 200.84057084305218 45.71128014152194 194.56424807489097 46.099188224545145 188.54248033233398 47.797077310728845 182.52071258977696 49.494966396912545 176.60391878013738 52.38681195622603 170.6871249704978 55.27865751553952 165.33328145727523 58.778772117518 159.97943794405265 62.27888671949648 154.98277083867504 66.33734358121798 149.9861037332974 70.39580044293949 145.94447734803916 77.23012669240734 141.90285096278092 84.0644529418752 138.43973510300805 89.51756905277782 134.97661924323515 94.97068516368044 132.17986288233962 100.96963248558811 129.3831065214441 106.96857980749576 126.71797386272303 113.29584804393954 124.05284120400195 119.62311628038334 121.13114083993725 125.73421766005018 118.20944047587254 131.845319039717 114.31012915648085 138.61366778047875 110.41081783708916 145.38201652124047 110.5704306364131 151.75452115804043 110.73004343573707 158.1270257948404 113.10802705143709 165.32095782434584 115.48601066713711 172.5148898538513 118.50765262010925 178.9342159602919 121.5292945730814 185.35354206673253 124.24263767307556 191.47746384954365 126.95598077306974 197.6013856323548 132.74928283173637 201.04806655528927 138.54258489040302 204.4947474782237 132.22137778934118 206.21921750159248 125.90017068827933 207.94368752496123 133.57301387620828 205.04814456250628 141.24585706413725 202.15260160005133 136.71825182560383 197.4292276514089 132.19064658707038 192.70585370276643 125.52595235519406 192.53275389229407 118.86125812331775 192.35965408182167 110.41479256783548 194.78457165270925 101.9683270123532 197.2094892235968 96.41882638233281 200.23054181789388 90.8693257523124 203.251594412191 85.1236988661512 207.75413184636477 79.37807197999 212.25666928053852 73.2820952072494 217.60709029027174 67.18611843450878 222.95751130000494 63.124094639388865 228.5491794705228 59.062070844268945 234.14084764104064 55.9343591814662 239.85327951719458 52.80664751866345 245.56571139334852 51.194121579191915 251.82768776173828 49.58159563972038 258.089664130128 49.57201170407427 264.9094348743197 49.56242776842816 271.72920561851134 50.147516700552714 277.94477242980435 50.73260563267728 284.16033924109735 51.14859244684339 291.96344371716344 51.5645792610095 299.76654819322954 53.949484733612564 307.65477561310036 56.33439020621563 315.5430030329712 57.91412344388472 321.5130528687796 59.493856681553815 327.4831027045879 65.11811654241546 332.93087801175386 70.74237640327712 338.3786533189199 75.84170975248995 342.6134077042907 80.94104310170279 346.8481620896615 87.49638065599311 350.06815470342434 94.05171821028343 353.28814731718717 99.75644336351579 355.1603473438063 105.46116851674813 357.03254737042545 111.88822078589237 358.24672351469377 118.3152730550366 359.4608996589621 124.9208683773559 360.41001490920434 131.5264636996752 361.3591301594466 138.78832006874083 361.4416728655475 146.05017643780647 361.5242155716484 152.4880261810984 361.5455482245279 158.92587592439034 361.5668808774074 166.53682150920505 361.21720144595645 174.14776709401977 360.86752201450554 180.21166843078953 360.9734033428313 186.27556976755926 361.0792846711571 193.35329020514922 361.2870681785356 200.4310106427392 361.49485168591406 208.7308924061232 360.4275880005894 217.03077416950714 359.3603243152648 224.29446053140788 356.890167399809 231.5581468933086 354.42001048435327 237.9797389127196 352.3424130542995 244.4013309321306 350.26481562424584 246.85069721085904 349.13799188195645 249.30006348958747 348.01116813966706 250.7154379233263 347.50600995787477 252.13081235706517 347.0008517760825 253.6259520152683 346.84910534686117 255.12109167347143 346.69735891763975 256.6090989689552 346.90784375058536 258.09710626443905 347.118328583531 259.4914981432763 347.6788112902633 260.8858900221136 348.2392939969955 262.10562436279105 349.11719929626497 263.3253587034685 349.9951045955344 264.29954448879704 351.1394085900992 265.27373027412557 352.28371258466404 265.9457477804899 353.62790827259533 266.6177652868543 354.9721039605266 266.94855682520995 356.43806662528505 267.27934836356565 357.9040292900434 267.2496883141613 359.40655711267516 267.22002826475693 360.9090849353069 266.8316404710574 362.3608509281647 266.4432526773579 363.81261692102254 265.71871025618145 365.1292443763906 264.99416783500493 366.44587183175867 263.9755812259127 367.5508383000695 262.9569946168205 368.6558047683803 261.7035641213911 369.484889546579 260.4501336259617 370.3139743247777 260.45069119611685 370.31369557302406 Z" fill="hsl(105, 69%, 30%)"></path></svg>